# xmcd CD database file
#
# Track frame offsets:
#	150
#	17510
#	36675
#	50681
#	66486
#	81097
#	102044
#	118568
#	134359
#	152054
#	169648
#	180829
#
# Disc length: 3041 seconds
#
# Revision: 6
# Processed by: cddbd v1.5.2PL0 Copyright (c) Steve Scherf et al.
# Submitted via: CDex 1.70beta2
#
DISCID=990bdf0c
DTITLE=Seasick Steve - Man From Another Time
DYEAR=2009
DGENRE=Blues
TTITLE0=Diddley Bo
TTITLE1=Big Green And Yeller
TTITLE2=Happy (To Have A Job)
TTITLE3=The Banjo Song
TTITLE4=Man From Another Time
TTITLE5=That's All
TTITLE6=Just Because I Can (CSX)
TTITLE7=Never Go West
TTITLE8=Dark
TTITLE9=Wenatchee
TTITLE10=My Home (Blue Eyes)
TTITLE11=Seasick Boogie - Say 'Goodbye' Jennifer
EXTD=YEAR: 2009
EXTT0=
EXTT1=
EXTT2=
EXTT3=
EXTT4=
EXTT5=
EXTT6=
EXTT7=
EXTT8=
EXTT9=
EXTT10=
EXTT11=
PLAYORDER=
